<svg id="Layer_1" data-name="Layer 1" xmlns="http://www.w3.org/2000/svg" viewBox="0 0 378.22 328.2">
  <defs>
    <style>
      .cls-1 {
        fill: none;
        stroke: #231f20;
        stroke-miterlimit: 10;
        stroke-width: 0.5px;
      }
    </style>
  </defs>
  <g>
    <g>
      <path class="cls-1" d="M270.31,190.21A78.29,78.29,0,0,0,265,161.9" transform="translate(-2.01 -27.33)"/>
      <path class="cls-1" d="M247.4,245.69a78.73,78.73,0,0,0,16.36-24.06" transform="translate(-2.01 -27.33)"/>
      <path class="cls-1" d="M247.54,134.88a78.89,78.89,0,0,0-23.88-16.51" transform="translate(-2.01 -27.33)"/>
      <path class="cls-1" d="M221.46,263a78.65,78.65,0,0,0,25.94-17.31" transform="translate(-2.01 -27.33)"/>
      <path class="cls-1" d="M223.66,118.37A78.57,78.57,0,0,0,193,111.6" transform="translate(-2.01 -27.33)"/>
      <path class="cls-1" d="M193,111.6c-.45,0-.9,0-1.35,0a78.42,78.42,0,0,0-27.93,5.12" transform="translate(-2.01 -27.33)"/>
      <path class="cls-1" d="M247.54,134.88a78.69,78.69,0,0,1,17.49,27" transform="translate(-2.01 -27.33)"/>
      <path class="cls-1" d="M193,268.83A78.26,78.26,0,0,0,221.46,263" transform="translate(-2.01 -27.33)"/>
      <path class="cls-1" d="M113,190.21a78.37,78.37,0,0,0,5.7,29.42" transform="translate(-2.01 -27.33)"/>
      <path class="cls-1" d="M270.31,190.21a78.32,78.32,0,0,1-6.55,31.42" transform="translate(-2.01 -27.33)"/>
      <path class="cls-1" d="M113,190.21A78.46,78.46,0,0,1,119.47,159" transform="translate(-2.01 -27.33)"/>
      <path class="cls-1" d="M136.33,246.09A78.8,78.8,0,0,0,161,262.67" transform="translate(-2.01 -27.33)"/>
      <path class="cls-1" d="M161,262.67a78.5,78.5,0,0,0,30.64,6.19l1.35,0" transform="translate(-2.01 -27.33)"/>
      <path class="cls-1" d="M118.72,219.63a78.84,78.84,0,0,0,17.61,26.46" transform="translate(-2.01 -27.33)"/>
      <path class="cls-1" d="M163.73,116.69a78.7,78.7,0,0,0-27.54,17.78" transform="translate(-2.01 -27.33)"/>
      <path class="cls-1" d="M119.47,159a79,79,0,0,1,16.72-24.52" transform="translate(-2.01 -27.33)"/>
      <line class="cls-1" x1="191" y1="327.94" x2="191" y2="241.5"/>
      <line class="cls-1" x1="191" y1="0.26" x2="191" y2="84.27"/>
      <line class="cls-1" x1="377.93" y1="162.89" x2="268.29" y2="162.89"/>
      <line class="cls-1" x1="111" y1="162.89" x2="0.29" y2="163.45"/>
      <line class="cls-1" x1="265.21" y1="238.18" x2="245.39" y2="218.36"/>
      <line class="cls-1" x1="115.43" y1="88.4" x2="134.17" y2="107.14"/>
      <line class="cls-1" x1="134.31" y1="218.76" x2="114.23" y2="238.84"/>
      <line class="cls-1" x1="265.02" y1="88.05" x2="245.52" y2="107.55"/>
      <line class="cls-1" x1="261.75" y1="194.3" x2="287.12" y2="205.32"/>
      <line class="cls-1" x1="117.46" y1="131.66" x2="91.64" y2="120.46"/>
      <line class="cls-1" x1="148.03" y1="260.62" x2="159" y2="235.34"/>
      <line class="cls-1" x1="232.89" y1="65.15" x2="221.64" y2="91.05"/>
      <line class="cls-1" x1="290.38" y1="123.78" x2="263.02" y2="134.57"/>
      <line class="cls-1" x1="116.71" y1="192.3" x2="92.15" y2="201.99"/>
      <line class="cls-1" x1="229.83" y1="262" x2="219.45" y2="235.67"/>
      <line class="cls-1" x1="151.62" y1="63.77" x2="161.72" y2="89.36"/>
    </g>
    <polygon class="cls-1" points="282.95 327.95 94.13 327.3 0.29 163.45 95.26 0.25 284.08 0.9 377.93 164.75 282.95 327.95"/>
    <circle class="cls-1" cx="188" cy="164.1" r="105.46"/>
    <polygon class="cls-1" points="186.9 327.33 45.53 245.72 45.53 82.48 186.9 0.86 328.26 82.48 328.26 245.72 186.9 327.33"/>
    <circle class="cls-1" cx="187.45" cy="164.1" r="114.4"/>
    <circle class="cls-1" cx="108.6" cy="21.88" r="21"/>
    <circle class="cls-1" cx="271.57" cy="21.88" r="21"/>
    <circle class="cls-1" cx="106.71" cy="305.25" r="21"/>
    <circle class="cls-1" cx="269.67" cy="305.25" r="21"/>
    <g>
      <g>
        <path class="cls-1" d="M278,199.17" transform="translate(-2.01 -27.33)"/>
        <path class="cls-1" d="M146.69,210.28" transform="translate(-2.01 -27.33)"/>
      </g>
      <polygon class="cls-1" points="227.16 227.95 152.53 227.69 115.43 162.93 152.97 98.42 227.61 98.68 264.7 163.44 227.16 227.95"/>
      <g>
        <path class="cls-1" d="M249,190.07a56.6,56.6,0,0,0-3.79-20.35" transform="translate(-2.01 -27.33)"/>
        <path class="cls-1" d="M232.54,230a56.55,56.55,0,0,0,11.76-17.29" transform="translate(-2.01 -27.33)"/>
        <path class="cls-1" d="M232.64,150.29a56.78,56.78,0,0,0-17.17-11.86" transform="translate(-2.01 -27.33)"/>
        <path class="cls-1" d="M213.89,242.4A56.46,56.46,0,0,0,232.54,230" transform="translate(-2.01 -27.33)"/>
        <path class="cls-1" d="M215.47,138.43a56.28,56.28,0,0,0-22-4.87" transform="translate(-2.01 -27.33)"/>
        <path class="cls-1" d="M193.44,133.56l-1,0a56.41,56.41,0,0,0-20.08,3.68" transform="translate(-2.01 -27.33)"/>
        <path class="cls-1" d="M232.64,150.29a56.76,56.76,0,0,1,12.58,19.43" transform="translate(-2.01 -27.33)"/>
        <path class="cls-1" d="M193.44,246.59a56.34,56.34,0,0,0,20.45-4.19" transform="translate(-2.01 -27.33)"/>
        <path class="cls-1" d="M135.93,190.07a56.5,56.5,0,0,0,4.1,21.15" transform="translate(-2.01 -27.33)"/>
        <path class="cls-1" d="M249,190.07a56.31,56.31,0,0,1-4.71,22.59" transform="translate(-2.01 -27.33)"/>
        <path class="cls-1" d="M135.93,190.07a56.34,56.34,0,0,1,4.64-22.44" transform="translate(-2.01 -27.33)"/>
        <path class="cls-1" d="M152.69,230.24a56.57,56.57,0,0,0,17.75,11.92" transform="translate(-2.01 -27.33)"/>
        <path class="cls-1" d="M170.44,242.16a56.29,56.29,0,0,0,22,4.45l1,0" transform="translate(-2.01 -27.33)"/>
        <path class="cls-1" d="M140,211.22a56.75,56.75,0,0,0,12.66,19" transform="translate(-2.01 -27.33)"/>
        <path class="cls-1" d="M172.39,137.22A56.64,56.64,0,0,0,152.59,150" transform="translate(-2.01 -27.33)"/>
        <path class="cls-1" d="M140.57,167.63a56.66,56.66,0,0,1,12-17.63" transform="translate(-2.01 -27.33)"/>
        <line class="cls-1" x1="244.78" y1="216.88" x2="230.53" y2="202.63"/>
        <line class="cls-1" x1="128.59" y1="100.69" x2="150.57" y2="122.67"/>
        <line class="cls-1" x1="150.67" y1="202.91" x2="136.24" y2="217.35"/>
        <line class="cls-1" x1="244.64" y1="108.95" x2="230.62" y2="122.97"/>
        <line class="cls-1" x1="242.29" y1="185.33" x2="260.52" y2="193.25"/>
        <line class="cls-1" x1="138.56" y1="140.3" x2="120" y2="132.24"/>
        <line class="cls-1" x1="148.03" y1="260.62" x2="168.42" y2="214.83"/>
        <line class="cls-1" x1="221.54" y1="92.48" x2="213.46" y2="111.1"/>
        <line class="cls-1" x1="262.87" y1="134.63" x2="243.2" y2="142.39"/>
        <line class="cls-1" x1="138.02" y1="183.89" x2="106.71" y2="196.25"/>
        <line class="cls-1" x1="219.34" y1="234" x2="211.88" y2="215.07"/>
        <line class="cls-1" x1="163.11" y1="91.49" x2="170.37" y2="109.89"/>
      </g>
      <circle class="cls-1" cx="190.07" cy="163.04" r="32.7"/>
      <circle class="cls-1" cx="190.07" cy="162.89" r="27.47"/>
      <circle class="cls-1" cx="190.41" cy="162.18" r="51.78"/>
    </g>
  </g>
</svg>
