<svg id="Layer_1" data-name="Layer 1" xmlns="http://www.w3.org/2000/svg" viewBox="0 0 368.06 366.97">
  <defs>
    <style>
      .cls-1 {
        fill: none;
        stroke: #231f20;
        stroke-miterlimit: 10;
      }
    </style>
  </defs>
  <circle class="cls-1" cx="184.58" cy="183.48" r="182.96"/>
  <polygon class="cls-1" points="274.46 343.36 91.51 342.73 0.58 183.97 92.6 25.85 275.56 26.48 366.49 185.24 274.46 343.36"/>
  <circle class="cls-1" cx="183.53" cy="184.38" r="116.92"/>
  <polygon class="cls-1" points="240.74 284.04 125.64 283.64 68.43 183.76 126.33 84.28 241.43 84.68 298.63 184.56 240.74 284.04"/>
  <g>
    <path class="cls-1" d="M278.74,194.13a87,87,0,0,0-5.84-31.39" transform="translate(-7.42 -10.64)"/>
    <path class="cls-1" d="M253.35,255.63A87.42,87.42,0,0,0,271.49,229" transform="translate(-7.42 -10.64)"/>
    <path class="cls-1" d="M253.5,132.78A87.45,87.45,0,0,0,227,114.48" transform="translate(-7.42 -10.64)"/>
    <path class="cls-1" d="M224.59,274.82a87.36,87.36,0,0,0,28.76-19.19" transform="translate(-7.42 -10.64)"/>
    <path class="cls-1" d="M227,114.48a87,87,0,0,0-34-7.51" transform="translate(-7.42 -10.64)"/>
    <path class="cls-1" d="M193.05,107c-.5,0-1,0-1.5,0a87,87,0,0,0-31,5.68" transform="translate(-7.42 -10.64)"/>
    <path class="cls-1" d="M253.5,132.78a87.32,87.32,0,0,1,19.4,30" transform="translate(-7.42 -10.64)"/>
    <path class="cls-1" d="M193.05,281.28a86.87,86.87,0,0,0,31.54-6.46" transform="translate(-7.42 -10.64)"/>
    <path class="cls-1" d="M104.36,194.13a86.89,86.89,0,0,0,6.33,32.61" transform="translate(-7.42 -10.64)"/>
    <path class="cls-1" d="M278.74,194.13A87,87,0,0,1,271.49,229" transform="translate(-7.42 -10.64)"/>
    <path class="cls-1" d="M104.36,194.13a86.88,86.88,0,0,1,7.16-34.62" transform="translate(-7.42 -10.64)"/>
    <path class="cls-1" d="M130.2,256.07a87.1,87.1,0,0,0,27.38,18.38" transform="translate(-7.42 -10.64)"/>
    <path class="cls-1" d="M157.58,274.45a86.93,86.93,0,0,0,34,6.87c.5,0,1,0,1.5,0" transform="translate(-7.42 -10.64)"/>
    <path class="cls-1" d="M110.69,226.74a87.45,87.45,0,0,0,19.51,29.33" transform="translate(-7.42 -10.64)"/>
    <path class="cls-1" d="M160.58,112.62a87.21,87.21,0,0,0-30.53,19.71" transform="translate(-7.42 -10.64)"/>
    <path class="cls-1" d="M111.52,159.51a87.5,87.5,0,0,1,18.53-27.18" transform="translate(-7.42 -10.64)"/>
    <line class="cls-1" x1="185.62" y1="366.47" x2="185.62" y2="270.64"/>
    <line class="cls-1" x1="185.62" y1="3.19" x2="185.62" y2="96.33"/>
    <line class="cls-1" x1="366.48" y1="183.48" x2="271.32" y2="183.48"/>
    <line class="cls-1" x1="96.94" y1="183.48" x2="0.58" y2="182.85"/>
    <line class="cls-1" x1="267.91" y1="266.96" x2="245.93" y2="244.98"/>
    <line class="cls-1" x1="101.85" y1="100.9" x2="122.63" y2="121.69"/>
    <line class="cls-1" x1="122.78" y1="245.43" x2="100.52" y2="267.69"/>
    <line class="cls-1" x1="267.69" y1="100.52" x2="246.07" y2="122.14"/>
    <line class="cls-1" x1="264.06" y1="218.32" x2="292.19" y2="230.53"/>
    <line class="cls-1" x1="104.1" y1="148.87" x2="75.47" y2="136.44"/>
    <line class="cls-1" x1="137.98" y1="291.84" x2="150.15" y2="263.81"/>
    <line class="cls-1" x1="232.07" y1="75.13" x2="219.6" y2="103.84"/>
    <line class="cls-1" x1="295.8" y1="140.13" x2="265.47" y2="152.1"/>
    <line class="cls-1" x1="103.27" y1="216.1" x2="76.04" y2="226.84"/>
    <line class="cls-1" x1="228.68" y1="293.37" x2="217.16" y2="264.18"/>
    <line class="cls-1" x1="141.97" y1="73.6" x2="153.16" y2="101.97"/>
  </g>
  <line class="cls-1" x1="28.51" y1="278.56" x2="46.58" y2="266.58"/>
  <line class="cls-1" x1="342.59" y1="90.81" x2="320.95" y2="106.18"/>
  <line class="cls-1" x1="25.52" y1="90.81" x2="47.15" y2="106.18"/>
  <line class="cls-1" x1="343.35" y1="270.17" x2="325.29" y2="258.19"/>
  <line class="cls-1" x1="92.6" y1="25.85" x2="126.33" y2="84.28"/>
  <line class="cls-1" x1="275.56" y1="26.48" x2="241.42" y2="84.68"/>
  <line class="cls-1" x1="274.46" y1="343.36" x2="245.93" y2="283.27"/>
  <line class="cls-1" x1="91.51" y1="342.73" x2="125.64" y2="283.64"/>
  <circle class="cls-1" cx="184.05" cy="182.49" r="79.85"/>
</svg>
